<?xml version="1.0" encoding="utf-8" standalone="no"?>
<!DOCTYPE svg PUBLIC "-//W3C//DTD SVG 1.1//EN"
  "http://www.w3.org/Graphics/SVG/1.1/DTD/svg11.dtd">
<svg xmlns:xlink="http://www.w3.org/1999/xlink" width="774.504pt" height="581.724pt" viewBox="0 0 774.504 581.724" xmlns="http://www.w3.org/2000/svg" version="1.1">
 <metadata>
  <rdf:RDF xmlns:dc="http://purl.org/dc/elements/1.1/" xmlns:cc="http://creativecommons.org/ns#" xmlns:rdf="http://www.w3.org/1999/02/22-rdf-syntax-ns#">
   <cc:Work>
    <dc:type rdf:resource="http://purl.org/dc/dcmitype/StillImage"/>
    <dc:date>2022-04-07T23:43:32.616958</dc:date>
    <dc:format>image/svg+xml</dc:format>
    <dc:creator>
     <cc:Agent>
      <dc:title>Matplotlib v3.5.1, https://matplotlib.org/</dc:title>
     </cc:Agent>
    </dc:creator>
   </cc:Work>
  </rdf:RDF>
 </metadata>
 <defs>
  <style type="text/css">*{stroke-linejoin: round; stroke-linecap: butt}</style>
 </defs>
 <g id="figure_1">
  <g id="patch_1">
   <path d="M 0 581.724 
L 774.504 581.724 
L 774.504 0 
L 0 0 
L 0 581.724 
z
" style="fill: none"/>
  </g>
  <g id="axes_1">
   <g id="patch_2">
    <path d="M 134.802 56.772 
L 135.166124 56.769111 
L 135.530156 56.760446 
L 135.894005 56.746005 
L 136.257579 56.725794 
L 136.620787 56.699817 
L 136.983536 56.668081 
L 137.345737 56.630593 
L 137.707297 56.587363 
L 138.068126 56.538402 
L 138.428132 56.483722 
L 138.787226 56.423338 
L 139.145316 56.357264 
L 139.502313 56.285516 
L 139.858127 56.208114 
L 140.212668 56.125075 
L 140.565846 56.036423 
L 140.917574 55.942178 
L 141.267762 55.842364 
L 141.616323 55.737006 
L 141.963168 55.626132 
L 142.30821 55.509769 
L 142.651362 55.387946 
L 142.992539 55.260693 
L 143.331653 55.128044 
L 143.668621 54.990031 
L 144.003356 54.846689 
L 144.335775 54.698054 
L 144.665793 54.544164 
L 144.993329 54.385057 
L 145.318299 54.220774 
L 145.640621 54.051355 
L 145.960215 53.876843 
L 146.277 53.697283 
L 146.590896 53.512719 
L 146.901824 53.323199 
L 147.209707 53.128769 
L 147.514465 52.929478 
L 147.816024 52.725378 
L 148.114306 52.516518 
L 148.409237 52.302952 
L 148.700742 52.084734 
L 148.988749 51.861919 
L 149.273184 51.634561 
L 149.553976 51.40272 
L 149.831054 51.166453 
L 150.104349 50.925819 
L 150.373791 50.68088 
L 150.639313 50.431696 
L 150.900849 50.178331 
L 151.158331 49.920849 
L 151.411696 49.659313 
L 151.66088 49.393791 
L 151.905819 49.124349 
L 152.146453 48.851054 
L 152.38272 48.573976 
L 152.614561 48.293184 
L 152.841919 48.008749 
L 153.064734 47.720742 
L 153.282952 47.429237 
L 153.496518 47.134306 
L 153.705378 46.836024 
L 153.909478 46.534465 
L 154.108769 46.229707 
L 154.303199 45.921824 
L 154.492719 45.610896 
L 154.677283 45.297 
L 154.856843 44.980215 
L 155.031355 44.660621 
L 155.200774 44.338299 
L 155.365057 44.013329 
L 155.524164 43.685793 
L 155.678054 43.355775 
L 155.826689 43.023356 
L 155.970031 42.688621 
L 156.108044 42.351653 
L 156.240693 42.012539 
L 156.367946 41.671362 
L 156.489769 41.32821 
L 156.606132 40.983168 
L 156.717006 40.636323 
L 156.822364 40.287762 
L 156.922178 39.937574 
L 157.016423 39.585846 
L 157.105075 39.232668 
L 157.188114 38.878127 
L 157.265516 38.522313 
L 157.337264 38.165316 
L 157.403338 37.807226 
L 157.463722 37.448132 
L 157.518402 37.088126 
L 157.567363 36.727297 
L 157.610593 36.365737 
L 157.648081 36.003536 
L 157.679817 35.640787 
L 157.705794 35.277579 
L 157.726005 34.914005 
L 157.740446 34.550156 
L 157.749111 34.186124 
L 157.752 33.822 
L 157.752 33.822 
L 157.749111 33.457876 
L 157.740446 33.093844 
L 157.726005 32.729995 
L 157.705794 32.366421 
L 157.679817 32.003213 
L 157.648081 31.640464 
L 157.610593 31.278263 
L 157.567363 30.916703 
L 157.518402 30.555874 
L 157.463722 30.195868 
L 157.403338 29.836774 
L 157.337264 29.478684 
L 157.265516 29.121687 
L 157.188114 28.765873 
L 157.105075 28.411332 
L 157.016423 28.058154 
L 156.922178 27.706426 
L 156.822364 27.356238 
L 156.717006 27.007677 
L 156.606132 26.660832 
L 156.489769 26.31579 
L 156.367946 25.972638 
L 156.240693 25.631461 
L 156.108044 25.292347 
L 155.970031 24.955379 
L 155.826689 24.620644 
L 155.678054 24.288225 
L 155.524164 23.958207 
L 155.365057 23.630671 
L 155.200774 23.305701 
L 155.031355 22.983379 
L 154.856843 22.663785 
L 154.677283 22.347 
L 154.492719 22.033104 
L 154.303199 21.722176 
L 154.108769 21.414293 
L 153.909478 21.109535 
L 153.705378 20.807976 
L 153.496518 20.509694 
L 153.282952 20.214763 
L 153.064734 19.923258 
L 152.841919 19.635251 
L 152.614561 19.350816 
L 152.38272 19.070024 
L 152.146453 18.792946 
L 151.905819 18.519651 
L 151.66088 18.250209 
L 151.411696 17.984687 
L 151.158331 17.723151 
L 150.900849 17.465669 
L 150.639313 17.212304 
L 150.373791 16.96312 
L 150.104349 16.718181 
L 149.831054 16.477547 
L 149.553976 16.24128 
L 149.273184 16.009439 
L 148.988749 15.782081 
L 148.700742 15.559266 
L 148.409237 15.341048 
L 148.114306 15.127482 
L 147.816024 14.918622 
L 147.514465 14.714522 
L 147.209707 14.515231 
L 146.901824 14.320801 
L 146.590896 14.131281 
L 146.277 13.946717 
L 145.960215 13.767157 
L 145.640621 13.592645 
L 145.318299 13.423226 
L 144.993329 13.258943 
L 144.665793 13.099836 
L 144.335775 12.945946 
L 144.003356 12.797311 
L 143.668621 12.653969 
L 143.331653 12.515956 
L 142.992539 12.383307 
L 142.651362 12.256054 
L 142.30821 12.134231 
L 141.963168 12.017868 
L 141.616323 11.906994 
L 141.267762 11.801636 
L 140.917574 11.701822 
L 140.565846 11.607577 
L 140.212668 11.518925 
L 139.858127 11.435886 
L 139.502313 11.358484 
L 139.145316 11.286736 
L 138.787226 11.220662 
L 138.428132 11.160278 
L 138.068126 11.105598 
L 137.707297 11.056637 
L 137.345737 11.013407 
L 136.983536 10.975919 
L 136.620787 10.944183 
L 136.257579 10.918206 
L 135.894005 10.897995 
L 135.530156 10.883554 
L 135.166124 10.874889 
L 134.802 10.872 
L 70.542 10.872 
L 70.177876 10.874889 
L 69.813844 10.883554 
L 69.449995 10.897995 
L 69.086421 10.918206 
L 68.723213 10.944183 
L 68.360464 10.975919 
L 67.998263 11.013407 
L 67.636703 11.056637 
L 67.275874 11.105598 
L 66.915868 11.160278 
L 66.556774 11.220662 
L 66.198684 11.286736 
L 65.841687 11.358484 
L 65.485873 11.435886 
L 65.131332 11.518925 
L 64.778154 11.607577 
L 64.426426 11.701822 
L 64.076238 11.801636 
L 63.727677 11.906994 
L 63.380832 12.017868 
L 63.03579 12.134231 
L 62.692638 12.256054 
L 62.351461 12.383307 
L 62.012347 12.515956 
L 61.675379 12.653969 
L 61.340644 12.797311 
L 61.008225 12.945946 
L 60.678207 13.099836 
L 60.350671 13.258943 
L 60.025701 13.423226 
L 59.703379 13.592645 
L 59.383785 13.767157 
L 59.067 13.946717 
L 58.753104 14.131281 
L 58.442176 14.320801 
L 58.134293 14.515231 
L 57.829535 14.714522 
L 57.527976 14.918622 
L 57.229694 15.127482 
L 56.934763 15.341048 
L 56.643258 15.559266 
L 56.355251 15.782081 
L 56.070816 16.009439 
L 55.790024 16.24128 
L 55.512946 16.477547 
L 55.239651 16.718181 
L 54.970209 16.96312 
L 54.704687 17.212304 
L 54.443151 17.465669 
L 54.185669 17.723151 
L 53.932304 17.984687 
L 53.68312 18.250209 
L 53.438181 18.519651 
L 53.197547 18.792946 
L 52.96128 19.070024 
L 52.729439 19.350816 
L 52.502081 19.635251 
L 52.279266 19.923258 
L 52.061048 20.214763 
L 51.847482 20.509694 
L 51.638622 20.807976 
L 51.434522 21.109535 
L 51.235231 21.414293 
L 51.040801 21.722176 
L 50.851281 22.033104 
L 50.666717 22.347 
L 50.487157 22.663785 
L 50.312645 22.983379 
L 50.143226 23.305701 
L 49.978943 23.630671 
L 49.819836 23.958207 
L 49.665946 24.288225 
L 49.517311 24.620644 
L 49.373969 24.955379 
L 49.235956 25.292347 
L 49.103307 25.631461 
L 48.976054 25.972638 
L 48.854231 26.31579 
L 48.737868 26.660832 
L 48.626994 27.007677 
L 48.521636 27.356238 
L 48.421822 27.706426 
L 48.327577 28.058154 
L 48.238925 28.411332 
L 48.155886 28.765873 
L 48.078484 29.121687 
L 48.006736 29.478684 
L 47.940662 29.836774 
L 47.880278 30.195868 
L 47.825598 30.555874 
L 47.776637 30.916703 
L 47.733407 31.278263 
L 47.695919 31.640464 
L 47.664183 32.003213 
L 47.638206 32.366421 
L 47.617995 32.729995 
L 47.603554 33.093844 
L 47.594889 33.457876 
L 47.592 33.822 
L 47.592 33.822 
L 47.594889 34.186124 
L 47.603554 34.550156 
L 47.617995 34.914005 
L 47.638206 35.277579 
L 47.664183 35.640787 
L 47.695919 36.003536 
L 47.733407 36.365737 
L 47.776637 36.727297 
L 47.825598 37.088126 
L 47.880278 37.448132 
L 47.940662 37.807226 
L 48.006736 38.165316 
L 48.078484 38.522313 
L 48.155886 38.878127 
L 48.238925 39.232668 
L 48.327577 39.585846 
L 48.421822 39.937574 
L 48.521636 40.287762 
L 48.626994 40.636323 
L 48.737868 40.983168 
L 48.854231 41.32821 
L 48.976054 41.671362 
L 49.103307 42.012539 
L 49.235956 42.351653 
L 49.373969 42.688621 
L 49.517311 43.023356 
L 49.665946 43.355775 
L 49.819836 43.685793 
L 49.978943 44.013329 
L 50.143226 44.338299 
L 50.312645 44.660621 
L 50.487157 44.980215 
L 50.666717 45.297 
L 50.851281 45.610896 
L 51.040801 45.921824 
L 51.235231 46.229707 
L 51.434522 46.534465 
L 51.638622 46.836024 
L 51.847482 47.134306 
L 52.061048 47.429237 
L 52.279266 47.720742 
L 52.502081 48.008749 
L 52.729439 48.293184 
L 52.96128 48.573976 
L 53.197547 48.851054 
L 53.438181 49.124349 
L 53.68312 49.393791 
L 53.932304 49.659313 
L 54.185669 49.920849 
L 54.443151 50.178331 
L 54.704687 50.431696 
L 54.970209 50.68088 
L 55.239651 50.925819 
L 55.512946 51.166453 
L 55.790024 51.40272 
L 56.070816 51.634561 
L 56.355251 51.861919 
L 56.643258 52.084734 
L 56.934763 52.302952 
L 57.229694 52.516518 
L 57.527976 52.725378 
L 57.829535 52.929478 
L 58.134293 53.128769 
L 58.442176 53.323199 
L 58.753104 53.512719 
L 59.067 53.697283 
L 59.383785 53.876843 
L 59.703379 54.051355 
L 60.025701 54.220774 
L 60.350671 54.385057 
L 60.678207 54.544164 
L 61.008225 54.698054 
L 61.340644 54.846689 
L 61.675379 54.990031 
L 62.012347 55.128044 
L 62.351461 55.260693 
L 62.692638 55.387946 
L 63.03579 55.509769 
L 63.380832 55.626132 
L 63.727677 55.737006 
L 64.076238 55.842364 
L 64.426426 55.942178 
L 64.778154 56.036423 
L 65.131332 56.125075 
L 65.485873 56.208114 
L 65.841687 56.285516 
L 66.198684 56.357264 
L 66.556774 56.423338 
L 66.915868 56.483722 
L 67.275874 56.538402 
L 67.636703 56.587363 
L 67.998263 56.630593 
L 68.360464 56.668081 
L 68.723213 56.699817 
L 69.086421 56.725794 
L 69.449995 56.746005 
L 69.813844 56.760446 
L 70.177876 56.769111 
L 70.542 56.772 
L 134.802 56.772 
z
" clip-path="url(#pbc1c50ea55)" style="fill: none; stroke: #000000; stroke-width: 2; stroke-linecap: round"/>
   </g>
   <g id="patch_3">
    <path d="M 10.872 148.572 
L 102.672 111.852 
L 194.472 148.572 
L 102.672 185.292 
L 10.872 148.572 
z
" clip-path="url(#pbc1c50ea55)" style="fill: none; stroke: #000000; stroke-width: 2; stroke-linecap: round"/>
   </g>
   <g id="patch_4">
    <path d="M 10.872 277.092 
L 102.672 240.372 
L 194.472 277.092 
L 102.672 313.812 
L 10.872 277.092 
z
" clip-path="url(#pbc1c50ea55)" style="fill: none; stroke: #000000; stroke-width: 2; stroke-linecap: round"/>
   </g>
   <g id="patch_5">
    <path d="M 10.872 405.612 
L 102.672 368.892 
L 194.472 405.612 
L 102.672 442.332 
L 10.872 405.612 
z
" clip-path="url(#pbc1c50ea55)" style="fill: none; stroke: #000000; stroke-width: 2; stroke-linecap: round"/>
   </g>
   <g id="patch_6">
    <path d="M 134.802 56.772 
L 135.166124 56.769111 
L 135.530156 56.760446 
L 135.894005 56.746005 
L 136.257579 56.725794 
L 136.620787 56.699817 
L 136.983536 56.668081 
L 137.345737 56.630593 
L 137.707297 56.587363 
L 138.068126 56.538402 
L 138.428132 56.483722 
L 138.787226 56.423338 
L 139.145316 56.357264 
L 139.502313 56.285516 
L 139.858127 56.208114 
L 140.212668 56.125075 
L 140.565846 56.036423 
L 140.917574 55.942178 
L 141.267762 55.842364 
L 141.616323 55.737006 
L 141.963168 55.626132 
L 142.30821 55.509769 
L 142.651362 55.387946 
L 142.992539 55.260693 
L 143.331653 55.128044 
L 143.668621 54.990031 
L 144.003356 54.846689 
L 144.335775 54.698054 
L 144.665793 54.544164 
L 144.993329 54.385057 
L 145.318299 54.220774 
L 145.640621 54.051355 
L 145.960215 53.876843 
L 146.277 53.697283 
L 146.590896 53.512719 
L 146.901824 53.323199 
L 147.209707 53.128769 
L 147.514465 52.929478 
L 147.816024 52.725378 
L 148.114306 52.516518 
L 148.409237 52.302952 
L 148.700742 52.084734 
L 148.988749 51.861919 
L 149.273184 51.634561 
L 149.553976 51.40272 
L 149.831054 51.166453 
L 150.104349 50.925819 
L 150.373791 50.68088 
L 150.639313 50.431696 
L 150.900849 50.178331 
L 151.158331 49.920849 
L 151.411696 49.659313 
L 151.66088 49.393791 
L 151.905819 49.124349 
L 152.146453 48.851054 
L 152.38272 48.573976 
L 152.614561 48.293184 
L 152.841919 48.008749 
L 153.064734 47.720742 
L 153.282952 47.429237 
L 153.496518 47.134306 
L 153.705378 46.836024 
L 153.909478 46.534465 
L 154.108769 46.229707 
L 154.303199 45.921824 
L 154.492719 45.610896 
L 154.677283 45.297 
L 154.856843 44.980215 
L 155.031355 44.660621 
L 155.200774 44.338299 
L 155.365057 44.013329 
L 155.524164 43.685793 
L 155.678054 43.355775 
L 155.826689 43.023356 
L 155.970031 42.688621 
L 156.108044 42.351653 
L 156.240693 42.012539 
L 156.367946 41.671362 
L 156.489769 41.32821 
L 156.606132 40.983168 
L 156.717006 40.636323 
L 156.822364 40.287762 
L 156.922178 39.937574 
L 157.016423 39.585846 
L 157.105075 39.232668 
L 157.188114 38.878127 
L 157.265516 38.522313 
L 157.337264 38.165316 
L 157.403338 37.807226 
L 157.463722 37.448132 
L 157.518402 37.088126 
L 157.567363 36.727297 
L 157.610593 36.365737 
L 157.648081 36.003536 
L 157.679817 35.640787 
L 157.705794 35.277579 
L 157.726005 34.914005 
L 157.740446 34.550156 
L 157.749111 34.186124 
L 157.752 33.822 
L 157.752 33.822 
L 157.749111 33.457876 
L 157.740446 33.093844 
L 157.726005 32.729995 
L 157.705794 32.366421 
L 157.679817 32.003213 
L 157.648081 31.640464 
L 157.610593 31.278263 
L 157.567363 30.916703 
L 157.518402 30.555874 
L 157.463722 30.195868 
L 157.403338 29.836774 
L 157.337264 29.478684 
L 157.265516 29.121687 
L 157.188114 28.765873 
L 157.105075 28.411332 
L 157.016423 28.058154 
L 156.922178 27.706426 
L 156.822364 27.356238 
L 156.717006 27.007677 
L 156.606132 26.660832 
L 156.489769 26.31579 
L 156.367946 25.972638 
L 156.240693 25.631461 
L 156.108044 25.292347 
L 155.970031 24.955379 
L 155.826689 24.620644 
L 155.678054 24.288225 
L 155.524164 23.958207 
L 155.365057 23.630671 
L 155.200774 23.305701 
L 155.031355 22.983379 
L 154.856843 22.663785 
L 154.677283 22.347 
L 154.492719 22.033104 
L 154.303199 21.722176 
L 154.108769 21.414293 
L 153.909478 21.109535 
L 153.705378 20.807976 
L 153.496518 20.509694 
L 153.282952 20.214763 
L 153.064734 19.923258 
L 152.841919 19.635251 
L 152.614561 19.350816 
L 152.38272 19.070024 
L 152.146453 18.792946 
L 151.905819 18.519651 
L 151.66088 18.250209 
L 151.411696 17.984687 
L 151.158331 17.723151 
L 150.900849 17.465669 
L 150.639313 17.212304 
L 150.373791 16.96312 
L 150.104349 16.718181 
L 149.831054 16.477547 
L 149.553976 16.24128 
L 149.273184 16.009439 
L 148.988749 15.782081 
L 148.700742 15.559266 
L 148.409237 15.341048 
L 148.114306 15.127482 
L 147.816024 14.918622 
L 147.514465 14.714522 
L 147.209707 14.515231 
L 146.901824 14.320801 
L 146.590896 14.131281 
L 146.277 13.946717 
L 145.960215 13.767157 
L 145.640621 13.592645 
L 145.318299 13.423226 
L 144.993329 13.258943 
L 144.665793 13.099836 
L 144.335775 12.945946 
L 144.003356 12.797311 
L 143.668621 12.653969 
L 143.331653 12.515956 
L 142.992539 12.383307 
L 142.651362 12.256054 
L 142.30821 12.134231 
L 141.963168 12.017868 
L 141.616323 11.906994 
L 141.267762 11.801636 
L 140.917574 11.701822 
L 140.565846 11.607577 
L 140.212668 11.518925 
L 139.858127 11.435886 
L 139.502313 11.358484 
L 139.145316 11.286736 
L 138.787226 11.220662 
L 138.428132 11.160278 
L 138.068126 11.105598 
L 137.707297 11.056637 
L 137.345737 11.013407 
L 136.983536 10.975919 
L 136.620787 10.944183 
L 136.257579 10.918206 
L 135.894005 10.897995 
L 135.530156 10.883554 
L 135.166124 10.874889 
L 134.802 10.872 
L 70.542 10.872 
L 70.177876 10.874889 
L 69.813844 10.883554 
L 69.449995 10.897995 
L 69.086421 10.918206 
L 68.723213 10.944183 
L 68.360464 10.975919 
L 67.998263 11.013407 
L 67.636703 11.056637 
L 67.275874 11.105598 
L 66.915868 11.160278 
L 66.556774 11.220662 
L 66.198684 11.286736 
L 65.841687 11.358484 
L 65.485873 11.435886 
L 65.131332 11.518925 
L 64.778154 11.607577 
L 64.426426 11.701822 
L 64.076238 11.801636 
L 63.727677 11.906994 
L 63.380832 12.017868 
L 63.03579 12.134231 
L 62.692638 12.256054 
L 62.351461 12.383307 
L 62.012347 12.515956 
L 61.675379 12.653969 
L 61.340644 12.797311 
L 61.008225 12.945946 
L 60.678207 13.099836 
L 60.350671 13.258943 
L 60.025701 13.423226 
L 59.703379 13.592645 
L 59.383785 13.767157 
L 59.067 13.946717 
L 58.753104 14.131281 
L 58.442176 14.320801 
L 58.134293 14.515231 
L 57.829535 14.714522 
L 57.527976 14.918622 
L 57.229694 15.127482 
L 56.934763 15.341048 
L 56.643258 15.559266 
L 56.355251 15.782081 
L 56.070816 16.009439 
L 55.790024 16.24128 
L 55.512946 16.477547 
L 55.239651 16.718181 
L 54.970209 16.96312 
L 54.704687 17.212304 
L 54.443151 17.465669 
L 54.185669 17.723151 
L 53.932304 17.984687 
L 53.68312 18.250209 
L 53.438181 18.519651 
L 53.197547 18.792946 
L 52.96128 19.070024 
L 52.729439 19.350816 
L 52.502081 19.635251 
L 52.279266 19.923258 
L 52.061048 20.214763 
L 51.847482 20.509694 
L 51.638622 20.807976 
L 51.434522 21.109535 
L 51.235231 21.414293 
L 51.040801 21.722176 
L 50.851281 22.033104 
L 50.666717 22.347 
L 50.487157 22.663785 
L 50.312645 22.983379 
L 50.143226 23.305701 
L 49.978943 23.630671 
L 49.819836 23.958207 
L 49.665946 24.288225 
L 49.517311 24.620644 
L 49.373969 24.955379 
L 49.235956 25.292347 
L 49.103307 25.631461 
L 48.976054 25.972638 
L 48.854231 26.31579 
L 48.737868 26.660832 
L 48.626994 27.007677 
L 48.521636 27.356238 
L 48.421822 27.706426 
L 48.327577 28.058154 
L 48.238925 28.411332 
L 48.155886 28.765873 
L 48.078484 29.121687 
L 48.006736 29.478684 
L 47.940662 29.836774 
L 47.880278 30.195868 
L 47.825598 30.555874 
L 47.776637 30.916703 
L 47.733407 31.278263 
L 47.695919 31.640464 
L 47.664183 32.003213 
L 47.638206 32.366421 
L 47.617995 32.729995 
L 47.603554 33.093844 
L 47.594889 33.457876 
L 47.592 33.822 
L 47.592 33.822 
L 47.594889 34.186124 
L 47.603554 34.550156 
L 47.617995 34.914005 
L 47.638206 35.277579 
L 47.664183 35.640787 
L 47.695919 36.003536 
L 47.733407 36.365737 
L 47.776637 36.727297 
L 47.825598 37.088126 
L 47.880278 37.448132 
L 47.940662 37.807226 
L 48.006736 38.165316 
L 48.078484 38.522313 
L 48.155886 38.878127 
L 48.238925 39.232668 
L 48.327577 39.585846 
L 48.421822 39.937574 
L 48.521636 40.287762 
L 48.626994 40.636323 
L 48.737868 40.983168 
L 48.854231 41.32821 
L 48.976054 41.671362 
L 49.103307 42.012539 
L 49.235956 42.351653 
L 49.373969 42.688621 
L 49.517311 43.023356 
L 49.665946 43.355775 
L 49.819836 43.685793 
L 49.978943 44.013329 
L 50.143226 44.338299 
L 50.312645 44.660621 
L 50.487157 44.980215 
L 50.666717 45.297 
L 50.851281 45.610896 
L 51.040801 45.921824 
L 51.235231 46.229707 
L 51.434522 46.534465 
L 51.638622 46.836024 
L 51.847482 47.134306 
L 52.061048 47.429237 
L 52.279266 47.720742 
L 52.502081 48.008749 
L 52.729439 48.293184 
L 52.96128 48.573976 
L 53.197547 48.851054 
L 53.438181 49.124349 
L 53.68312 49.393791 
L 53.932304 49.659313 
L 54.185669 49.920849 
L 54.443151 50.178331 
L 54.704687 50.431696 
L 54.970209 50.68088 
L 55.239651 50.925819 
L 55.512946 51.166453 
L 55.790024 51.40272 
L 56.070816 51.634561 
L 56.355251 51.861919 
L 56.643258 52.084734 
L 56.934763 52.302952 
L 57.229694 52.516518 
L 57.527976 52.725378 
L 57.829535 52.929478 
L 58.134293 53.128769 
L 58.442176 53.323199 
L 58.753104 53.512719 
L 59.067 53.697283 
L 59.383785 53.876843 
L 59.703379 54.051355 
L 60.025701 54.220774 
L 60.350671 54.385057 
L 60.678207 54.544164 
L 61.008225 54.698054 
L 61.340644 54.846689 
L 61.675379 54.990031 
L 62.012347 55.128044 
L 62.351461 55.260693 
L 62.692638 55.387946 
L 63.03579 55.509769 
L 63.380832 55.626132 
L 63.727677 55.737006 
L 64.076238 55.842364 
L 64.426426 55.942178 
L 64.778154 56.036423 
L 65.131332 56.125075 
L 65.485873 56.208114 
L 65.841687 56.285516 
L 66.198684 56.357264 
L 66.556774 56.423338 
L 66.915868 56.483722 
L 67.275874 56.538402 
L 67.636703 56.587363 
L 67.998263 56.630593 
L 68.360464 56.668081 
L 68.723213 56.699817 
L 69.086421 56.725794 
L 69.449995 56.746005 
L 69.813844 56.760446 
L 70.177876 56.769111 
L 70.542 56.772 
L 134.802 56.772 
z
" clip-path="url(#pbc1c50ea55)" style="fill: none; stroke: #000000; stroke-width: 2; stroke-linecap: round"/>
   </g>
   <g id="patch_7">
    <path d="M 10.872 148.572 
L 102.672 111.852 
L 194.472 148.572 
L 102.672 185.292 
L 10.872 148.572 
z
" clip-path="url(#pbc1c50ea55)" style="fill: none; stroke: #000000; stroke-width: 2; stroke-linecap: round"/>
   </g>
   <g id="patch_8">
    <path d="M 10.872 277.092 
L 102.672 240.372 
L 194.472 277.092 
L 102.672 313.812 
L 10.872 277.092 
z
" clip-path="url(#pbc1c50ea55)" style="fill: none; stroke: #000000; stroke-width: 2; stroke-linecap: round"/>
   </g>
   <g id="patch_9">
    <path d="M 10.872 405.612 
L 102.672 368.892 
L 194.472 405.612 
L 102.672 442.332 
L 10.872 405.612 
z
" clip-path="url(#pbc1c50ea55)" style="fill: none; stroke: #000000; stroke-width: 2; stroke-linecap: round"/>
   </g>
   <g id="line2d_1">
    <path d="M 102.672 56.772 
L 102.672 84.312 
L 102.672 102.672 
" clip-path="url(#pbc1c50ea55)" style="fill: none; stroke: #000000; stroke-width: 2; stroke-linecap: round"/>
   </g>
   <g id="patch_10">
    <path d="M 105.426 102.672 
L 102.672 111.852 
L 99.918 102.672 
z
" clip-path="url(#pbc1c50ea55)"/>
   </g>
   <g id="line2d_2">
    <path d="M 102.672 185.292 
L 102.672 212.832 
L 102.672 231.192 
" clip-path="url(#pbc1c50ea55)" style="fill: none; stroke: #000000; stroke-width: 2; stroke-linecap: round"/>
   </g>
   <g id="patch_11">
    <path d="M 105.426 231.192 
L 102.672 240.372 
L 99.918 231.192 
z
" clip-path="url(#pbc1c50ea55)"/>
   </g>
   <g id="line2d_3">
    <path d="M 102.672 313.812 
L 102.672 341.352 
L 102.672 359.712 
" clip-path="url(#pbc1c50ea55)" style="fill: none; stroke: #000000; stroke-width: 2; stroke-linecap: round"/>
   </g>
   <g id="patch_12">
    <path d="M 105.426 359.712 
L 102.672 368.892 
L 99.918 359.712 
z
" clip-path="url(#pbc1c50ea55)"/>
   </g>
   <g id="line2d_4">
    <path d="M 194.472 405.612 
L 222.012 405.612 
L 240.372 405.612 
" clip-path="url(#pbc1c50ea55)" style="fill: none; stroke: #000000; stroke-width: 2; stroke-linecap: round"/>
   </g>
   <g id="patch_13">
    <path d="M 240.372 402.858 
L 249.552 405.612 
L 240.372 408.366 
z
" clip-path="url(#pbc1c50ea55)"/>
   </g>
   <g id="line2d_5">
    <path d="M 249.552 405.612 
L 249.552 368.892 
L 433.152 368.892 
L 433.152 442.332 
L 249.552 442.332 
L 249.552 405.612 
" clip-path="url(#pbc1c50ea55)" style="fill: none; stroke: #000000; stroke-width: 2; stroke-linecap: round"/>
   </g>
   <g id="line2d_6">
    <path d="M 102.672 442.332 
L 102.672 469.872 
L 102.672 488.232 
" clip-path="url(#pbc1c50ea55)" style="fill: none; stroke: #000000; stroke-width: 2; stroke-linecap: round"/>
   </g>
   <g id="patch_14">
    <path d="M 105.426 488.232 
L 102.672 497.412 
L 99.918 488.232 
z
" clip-path="url(#pbc1c50ea55)"/>
   </g>
   <g id="line2d_7">
    <path d="M 10.872 534.132 
L 10.872 497.412 
L 194.472 497.412 
L 194.472 570.852 
L 10.872 570.852 
L 10.872 534.132 
" clip-path="url(#pbc1c50ea55)" style="fill: none; stroke: #000000; stroke-width: 2; stroke-linecap: round"/>
   </g>
   <g id="line2d_8">
    <path d="M 194.472 148.572 
L 387.252 148.572 
L 570.852 148.572 
" clip-path="url(#pbc1c50ea55)" style="fill: none; stroke: #000000; stroke-width: 2; stroke-linecap: round"/>
   </g>
   <g id="patch_15">
    <path d="M 570.852 145.818 
L 580.032 148.572 
L 570.852 151.326 
z
" clip-path="url(#pbc1c50ea55)"/>
   </g>
   <g id="line2d_9">
    <path d="M 580.032 148.572 
L 580.032 111.852 
L 763.632 111.852 
L 763.632 185.292 
L 580.032 185.292 
L 580.032 148.572 
" clip-path="url(#pbc1c50ea55)" style="fill: none; stroke: #000000; stroke-width: 2; stroke-linecap: round"/>
   </g>
   <g id="line2d_10">
    <path d="M 194.472 277.092 
L 277.092 277.092 
L 350.532 277.092 
" clip-path="url(#pbc1c50ea55)" style="fill: none; stroke: #000000; stroke-width: 2; stroke-linecap: round"/>
   </g>
   <g id="patch_16">
    <path d="M 350.532 274.338 
L 359.712 277.092 
L 350.532 279.846 
z
" clip-path="url(#pbc1c50ea55)"/>
   </g>
   <g id="line2d_11">
    <path d="M 359.712 277.092 
L 359.712 240.372 
L 543.312 240.372 
L 543.312 313.812 
L 359.712 313.812 
L 359.712 277.092 
" clip-path="url(#pbc1c50ea55)" style="fill: none; stroke: #000000; stroke-width: 2; stroke-linecap: round"/>
   </g>
   <g id="line2d_12">
    <path d="M 102.672 56.772 
L 102.672 84.312 
L 102.672 102.672 
" clip-path="url(#pbc1c50ea55)" style="fill: none; stroke: #000000; stroke-width: 2; stroke-linecap: round"/>
   </g>
   <g id="patch_17">
    <path d="M 105.426 102.672 
L 102.672 111.852 
L 99.918 102.672 
z
" clip-path="url(#pbc1c50ea55)"/>
   </g>
   <g id="line2d_13">
    <path d="M 102.672 185.292 
L 102.672 212.832 
L 102.672 231.192 
" clip-path="url(#pbc1c50ea55)" style="fill: none; stroke: #000000; stroke-width: 2; stroke-linecap: round"/>
   </g>
   <g id="patch_18">
    <path d="M 105.426 231.192 
L 102.672 240.372 
L 99.918 231.192 
z
" clip-path="url(#pbc1c50ea55)"/>
   </g>
   <g id="line2d_14">
    <path d="M 102.672 313.812 
L 102.672 341.352 
L 102.672 359.712 
" clip-path="url(#pbc1c50ea55)" style="fill: none; stroke: #000000; stroke-width: 2; stroke-linecap: round"/>
   </g>
   <g id="patch_19">
    <path d="M 105.426 359.712 
L 102.672 368.892 
L 99.918 359.712 
z
" clip-path="url(#pbc1c50ea55)"/>
   </g>
   <g id="line2d_15">
    <path d="M 194.472 405.612 
L 222.012 405.612 
L 240.372 405.612 
" clip-path="url(#pbc1c50ea55)" style="fill: none; stroke: #000000; stroke-width: 2; stroke-linecap: round"/>
   </g>
   <g id="patch_20">
    <path d="M 240.372 402.858 
L 249.552 405.612 
L 240.372 408.366 
z
" clip-path="url(#pbc1c50ea55)"/>
   </g>
   <g id="line2d_16">
    <path d="M 249.552 405.612 
L 249.552 368.892 
L 433.152 368.892 
L 433.152 442.332 
L 249.552 442.332 
L 249.552 405.612 
" clip-path="url(#pbc1c50ea55)" style="fill: none; stroke: #000000; stroke-width: 2; stroke-linecap: round"/>
   </g>
   <g id="line2d_17">
    <path d="M 102.672 442.332 
L 102.672 469.872 
L 102.672 488.232 
" clip-path="url(#pbc1c50ea55)" style="fill: none; stroke: #000000; stroke-width: 2; stroke-linecap: round"/>
   </g>
   <g id="patch_21">
    <path d="M 105.426 488.232 
L 102.672 497.412 
L 99.918 488.232 
z
" clip-path="url(#pbc1c50ea55)"/>
   </g>
   <g id="line2d_18">
    <path d="M 10.872 534.132 
L 10.872 497.412 
L 194.472 497.412 
L 194.472 570.852 
L 10.872 570.852 
L 10.872 534.132 
" clip-path="url(#pbc1c50ea55)" style="fill: none; stroke: #000000; stroke-width: 2; stroke-linecap: round"/>
   </g>
   <g id="line2d_19">
    <path d="M 194.472 148.572 
L 387.252 148.572 
L 570.852 148.572 
" clip-path="url(#pbc1c50ea55)" style="fill: none; stroke: #000000; stroke-width: 2; stroke-linecap: round"/>
   </g>
   <g id="patch_22">
    <path d="M 570.852 145.818 
L 580.032 148.572 
L 570.852 151.326 
z
" clip-path="url(#pbc1c50ea55)"/>
   </g>
   <g id="line2d_20">
    <path d="M 580.032 148.572 
L 580.032 111.852 
L 763.632 111.852 
L 763.632 185.292 
L 580.032 185.292 
L 580.032 148.572 
" clip-path="url(#pbc1c50ea55)" style="fill: none; stroke: #000000; stroke-width: 2; stroke-linecap: round"/>
   </g>
   <g id="line2d_21">
    <path d="M 194.472 277.092 
L 277.092 277.092 
L 350.532 277.092 
" clip-path="url(#pbc1c50ea55)" style="fill: none; stroke: #000000; stroke-width: 2; stroke-linecap: round"/>
   </g>
   <g id="patch_23">
    <path d="M 350.532 274.338 
L 359.712 277.092 
L 350.532 279.846 
z
" clip-path="url(#pbc1c50ea55)"/>
   </g>
   <g id="line2d_22">
    <path d="M 359.712 277.092 
L 359.712 240.372 
L 543.312 240.372 
L 543.312 313.812 
L 359.712 313.812 
L 359.712 277.092 
" clip-path="url(#pbc1c50ea55)" style="fill: none; stroke: #000000; stroke-width: 2; stroke-linecap: round"/>
   </g>
   <g id="text_1">
    <g clip-path="url(#pbc1c50ea55)">
     <!-- Given num -->
     <g transform="translate(68.590945 37.271219)scale(0.125 -0.125)">
      <defs>
       <path id="DejaVuSans-47" d="M 3809 666 
L 3809 1919 
L 2778 1919 
L 2778 2438 
L 4434 2438 
L 4434 434 
Q 4069 175 3628 42 
Q 3188 -91 2688 -91 
Q 1594 -91 976 548 
Q 359 1188 359 2328 
Q 359 3472 976 4111 
Q 1594 4750 2688 4750 
Q 3144 4750 3555 4637 
Q 3966 4525 4313 4306 
L 4313 3634 
Q 3963 3931 3569 4081 
Q 3175 4231 2741 4231 
Q 1884 4231 1454 3753 
Q 1025 3275 1025 2328 
Q 1025 1384 1454 906 
Q 1884 428 2741 428 
Q 3075 428 3337 486 
Q 3600 544 3809 666 
z
" transform="scale(0.015625)"/>
       <path id="DejaVuSans-69" d="M 603 3500 
L 1178 3500 
L 1178 0 
L 603 0 
L 603 3500 
z
M 603 4863 
L 1178 4863 
L 1178 4134 
L 603 4134 
L 603 4863 
z
" transform="scale(0.015625)"/>
       <path id="DejaVuSans-76" d="M 191 3500 
L 800 3500 
L 1894 563 
L 2988 3500 
L 3597 3500 
L 2284 0 
L 1503 0 
L 191 3500 
z
" transform="scale(0.015625)"/>
       <path id="DejaVuSans-65" d="M 3597 1894 
L 3597 1613 
L 953 1613 
Q 991 1019 1311 708 
Q 1631 397 2203 397 
Q 2534 397 2845 478 
Q 3156 559 3463 722 
L 3463 178 
Q 3153 47 2828 -22 
Q 2503 -91 2169 -91 
Q 1331 -91 842 396 
Q 353 884 353 1716 
Q 353 2575 817 3079 
Q 1281 3584 2069 3584 
Q 2775 3584 3186 3129 
Q 3597 2675 3597 1894 
z
M 3022 2063 
Q 3016 2534 2758 2815 
Q 2500 3097 2075 3097 
Q 1594 3097 1305 2825 
Q 1016 2553 972 2059 
L 3022 2063 
z
" transform="scale(0.015625)"/>
       <path id="DejaVuSans-6e" d="M 3513 2113 
L 3513 0 
L 2938 0 
L 2938 2094 
Q 2938 2591 2744 2837 
Q 2550 3084 2163 3084 
Q 1697 3084 1428 2787 
Q 1159 2491 1159 1978 
L 1159 0 
L 581 0 
L 581 3500 
L 1159 3500 
L 1159 2956 
Q 1366 3272 1645 3428 
Q 1925 3584 2291 3584 
Q 2894 3584 3203 3211 
Q 3513 2838 3513 2113 
z
" transform="scale(0.015625)"/>
       <path id="DejaVuSans-20" transform="scale(0.015625)"/>
       <path id="DejaVuSans-75" d="M 544 1381 
L 544 3500 
L 1119 3500 
L 1119 1403 
Q 1119 906 1312 657 
Q 1506 409 1894 409 
Q 2359 409 2629 706 
Q 2900 1003 2900 1516 
L 2900 3500 
L 3475 3500 
L 3475 0 
L 2900 0 
L 2900 538 
Q 2691 219 2414 64 
Q 2138 -91 1772 -91 
Q 1169 -91 856 284 
Q 544 659 544 1381 
z
M 1991 3584 
L 1991 3584 
z
" transform="scale(0.015625)"/>
       <path id="DejaVuSans-6d" d="M 3328 2828 
Q 3544 3216 3844 3400 
Q 4144 3584 4550 3584 
Q 5097 3584 5394 3201 
Q 5691 2819 5691 2113 
L 5691 0 
L 5113 0 
L 5113 2094 
Q 5113 2597 4934 2840 
Q 4756 3084 4391 3084 
Q 3944 3084 3684 2787 
Q 3425 2491 3425 1978 
L 3425 0 
L 2847 0 
L 2847 2094 
Q 2847 2600 2669 2842 
Q 2491 3084 2119 3084 
Q 1678 3084 1418 2786 
Q 1159 2488 1159 1978 
L 1159 0 
L 581 0 
L 581 3500 
L 1159 3500 
L 1159 2956 
Q 1356 3278 1631 3431 
Q 1906 3584 2284 3584 
Q 2666 3584 2933 3390 
Q 3200 3197 3328 2828 
z
" transform="scale(0.015625)"/>
      </defs>
      <use xlink:href="#DejaVuSans-47"/>
      <use xlink:href="#DejaVuSans-69" x="77.490234"/>
      <use xlink:href="#DejaVuSans-76" x="105.273438"/>
      <use xlink:href="#DejaVuSans-65" x="164.453125"/>
      <use xlink:href="#DejaVuSans-6e" x="225.976562"/>
      <use xlink:href="#DejaVuSans-20" x="289.355469"/>
      <use xlink:href="#DejaVuSans-6e" x="321.142578"/>
      <use xlink:href="#DejaVuSans-75" x="384.521484"/>
      <use xlink:href="#DejaVuSans-6d" x="447.900391"/>
     </g>
    </g>
   </g>
   <g id="text_2">
    <g clip-path="url(#pbc1c50ea55)">
     <!-- NO -->
     <g transform="translate(107.4456 199.563647)scale(0.125 -0.125)">
      <defs>
       <path id="DejaVuSans-4e" d="M 628 4666 
L 1478 4666 
L 3547 763 
L 3547 4666 
L 4159 4666 
L 4159 0 
L 3309 0 
L 1241 3903 
L 1241 0 
L 628 0 
L 628 4666 
z
" transform="scale(0.015625)"/>
       <path id="DejaVuSans-4f" d="M 2522 4238 
Q 1834 4238 1429 3725 
Q 1025 3213 1025 2328 
Q 1025 1447 1429 934 
Q 1834 422 2522 422 
Q 3209 422 3611 934 
Q 4013 1447 4013 2328 
Q 4013 3213 3611 3725 
Q 3209 4238 2522 4238 
z
M 2522 4750 
Q 3503 4750 4090 4092 
Q 4678 3434 4678 2328 
Q 4678 1225 4090 567 
Q 3503 -91 2522 -91 
Q 1538 -91 948 565 
Q 359 1222 359 2328 
Q 359 3434 948 4092 
Q 1538 4750 2522 4750 
z
" transform="scale(0.015625)"/>
      </defs>
      <use xlink:href="#DejaVuSans-4e"/>
      <use xlink:href="#DejaVuSans-4f" x="74.804688"/>
     </g>
    </g>
   </g>
   <g id="text_3">
    <g clip-path="url(#pbc1c50ea55)">
     <!-- YES -->
     <g transform="translate(199.2456 141.198791)scale(0.125 -0.125)">
      <defs>
       <path id="DejaVuSans-59" d="M -13 4666 
L 666 4666 
L 1959 2747 
L 3244 4666 
L 3922 4666 
L 2272 2222 
L 2272 0 
L 1638 0 
L 1638 2222 
L -13 4666 
z
" transform="scale(0.015625)"/>
       <path id="DejaVuSans-45" d="M 628 4666 
L 3578 4666 
L 3578 4134 
L 1259 4134 
L 1259 2753 
L 3481 2753 
L 3481 2222 
L 1259 2222 
L 1259 531 
L 3634 531 
L 3634 0 
L 628 0 
L 628 4666 
z
" transform="scale(0.015625)"/>
       <path id="DejaVuSans-53" d="M 3425 4513 
L 3425 3897 
Q 3066 4069 2747 4153 
Q 2428 4238 2131 4238 
Q 1616 4238 1336 4038 
Q 1056 3838 1056 3469 
Q 1056 3159 1242 3001 
Q 1428 2844 1947 2747 
L 2328 2669 
Q 3034 2534 3370 2195 
Q 3706 1856 3706 1288 
Q 3706 609 3251 259 
Q 2797 -91 1919 -91 
Q 1588 -91 1214 -16 
Q 841 59 441 206 
L 441 856 
Q 825 641 1194 531 
Q 1563 422 1919 422 
Q 2459 422 2753 634 
Q 3047 847 3047 1241 
Q 3047 1584 2836 1778 
Q 2625 1972 2144 2069 
L 1759 2144 
Q 1053 2284 737 2584 
Q 422 2884 422 3419 
Q 422 4038 858 4394 
Q 1294 4750 2059 4750 
Q 2388 4750 2728 4690 
Q 3069 4631 3425 4513 
z
" transform="scale(0.015625)"/>
      </defs>
      <use xlink:href="#DejaVuSans-59"/>
      <use xlink:href="#DejaVuSans-45" x="61.083984"/>
      <use xlink:href="#DejaVuSans-53" x="124.267578"/>
     </g>
    </g>
   </g>
   <g id="text_4">
    <g clip-path="url(#pbc1c50ea55)">
     <!-- num between [-1, 1]? -->
     <g transform="translate(35.287234 152.021219)scale(0.125 -0.125)">
      <defs>
       <path id="DejaVuSans-62" d="M 3116 1747 
Q 3116 2381 2855 2742 
Q 2594 3103 2138 3103 
Q 1681 3103 1420 2742 
Q 1159 2381 1159 1747 
Q 1159 1113 1420 752 
Q 1681 391 2138 391 
Q 2594 391 2855 752 
Q 3116 1113 3116 1747 
z
M 1159 2969 
Q 1341 3281 1617 3432 
Q 1894 3584 2278 3584 
Q 2916 3584 3314 3078 
Q 3713 2572 3713 1747 
Q 3713 922 3314 415 
Q 2916 -91 2278 -91 
Q 1894 -91 1617 61 
Q 1341 213 1159 525 
L 1159 0 
L 581 0 
L 581 4863 
L 1159 4863 
L 1159 2969 
z
" transform="scale(0.015625)"/>
       <path id="DejaVuSans-74" d="M 1172 4494 
L 1172 3500 
L 2356 3500 
L 2356 3053 
L 1172 3053 
L 1172 1153 
Q 1172 725 1289 603 
Q 1406 481 1766 481 
L 2356 481 
L 2356 0 
L 1766 0 
Q 1100 0 847 248 
Q 594 497 594 1153 
L 594 3053 
L 172 3053 
L 172 3500 
L 594 3500 
L 594 4494 
L 1172 4494 
z
" transform="scale(0.015625)"/>
       <path id="DejaVuSans-77" d="M 269 3500 
L 844 3500 
L 1563 769 
L 2278 3500 
L 2956 3500 
L 3675 769 
L 4391 3500 
L 4966 3500 
L 4050 0 
L 3372 0 
L 2619 2869 
L 1863 0 
L 1184 0 
L 269 3500 
z
" transform="scale(0.015625)"/>
       <path id="DejaVuSans-5b" d="M 550 4863 
L 1875 4863 
L 1875 4416 
L 1125 4416 
L 1125 -397 
L 1875 -397 
L 1875 -844 
L 550 -844 
L 550 4863 
z
" transform="scale(0.015625)"/>
       <path id="DejaVuSans-2d" d="M 313 2009 
L 1997 2009 
L 1997 1497 
L 313 1497 
L 313 2009 
z
" transform="scale(0.015625)"/>
       <path id="DejaVuSans-31" d="M 794 531 
L 1825 531 
L 1825 4091 
L 703 3866 
L 703 4441 
L 1819 4666 
L 2450 4666 
L 2450 531 
L 3481 531 
L 3481 0 
L 794 0 
L 794 531 
z
" transform="scale(0.015625)"/>
       <path id="DejaVuSans-2c" d="M 750 794 
L 1409 794 
L 1409 256 
L 897 -744 
L 494 -744 
L 750 256 
L 750 794 
z
" transform="scale(0.015625)"/>
       <path id="DejaVuSans-5d" d="M 1947 4863 
L 1947 -844 
L 622 -844 
L 622 -397 
L 1369 -397 
L 1369 4416 
L 622 4416 
L 622 4863 
L 1947 4863 
z
" transform="scale(0.015625)"/>
       <path id="DejaVuSans-3f" d="M 1222 794 
L 1856 794 
L 1856 0 
L 1222 0 
L 1222 794 
z
M 1838 1253 
L 1241 1253 
L 1241 1734 
Q 1241 2050 1328 2253 
Q 1416 2456 1697 2725 
L 1978 3003 
Q 2156 3169 2236 3316 
Q 2316 3463 2316 3616 
Q 2316 3894 2111 4066 
Q 1906 4238 1569 4238 
Q 1322 4238 1042 4128 
Q 763 4019 459 3809 
L 459 4397 
Q 753 4575 1054 4662 
Q 1356 4750 1678 4750 
Q 2253 4750 2601 4447 
Q 2950 4144 2950 3647 
Q 2950 3409 2837 3195 
Q 2725 2981 2444 2713 
L 2169 2444 
Q 2022 2297 1961 2214 
Q 1900 2131 1875 2053 
Q 1856 1988 1847 1894 
Q 1838 1800 1838 1638 
L 1838 1253 
z
" transform="scale(0.015625)"/>
      </defs>
      <use xlink:href="#DejaVuSans-6e"/>
      <use xlink:href="#DejaVuSans-75" x="63.378906"/>
      <use xlink:href="#DejaVuSans-6d" x="126.757812"/>
      <use xlink:href="#DejaVuSans-20" x="224.169922"/>
      <use xlink:href="#DejaVuSans-62" x="255.957031"/>
      <use xlink:href="#DejaVuSans-65" x="319.433594"/>
      <use xlink:href="#DejaVuSans-74" x="380.957031"/>
      <use xlink:href="#DejaVuSans-77" x="420.166016"/>
      <use xlink:href="#DejaVuSans-65" x="501.953125"/>
      <use xlink:href="#DejaVuSans-65" x="563.476562"/>
      <use xlink:href="#DejaVuSans-6e" x="625"/>
      <use xlink:href="#DejaVuSans-20" x="688.378906"/>
      <use xlink:href="#DejaVuSans-5b" x="720.166016"/>
      <use xlink:href="#DejaVuSans-2d" x="759.179688"/>
      <use xlink:href="#DejaVuSans-31" x="795.263672"/>
      <use xlink:href="#DejaVuSans-2c" x="858.886719"/>
      <use xlink:href="#DejaVuSans-20" x="890.673828"/>
      <use xlink:href="#DejaVuSans-31" x="922.460938"/>
      <use xlink:href="#DejaVuSans-5d" x="986.083984"/>
      <use xlink:href="#DejaVuSans-3f" x="1025.097656"/>
     </g>
    </g>
   </g>
   <g id="text_5">
    <g clip-path="url(#pbc1c50ea55)">
     <!-- NO -->
     <g transform="translate(107.4456 328.083647)scale(0.125 -0.125)">
      <use xlink:href="#DejaVuSans-4e"/>
      <use xlink:href="#DejaVuSans-4f" x="74.804688"/>
     </g>
    </g>
   </g>
   <g id="text_6">
    <g clip-path="url(#pbc1c50ea55)">
     <!-- YES -->
     <g transform="translate(199.2456 269.718791)scale(0.125 -0.125)">
      <use xlink:href="#DejaVuSans-59"/>
      <use xlink:href="#DejaVuSans-45" x="61.083984"/>
      <use xlink:href="#DejaVuSans-53" x="124.267578"/>
     </g>
    </g>
   </g>
   <g id="text_7">
    <g clip-path="url(#pbc1c50ea55)">
     <!-- num between [-3, 3]? -->
     <g transform="translate(35.287234 280.541219)scale(0.125 -0.125)">
      <defs>
       <path id="DejaVuSans-33" d="M 2597 2516 
Q 3050 2419 3304 2112 
Q 3559 1806 3559 1356 
Q 3559 666 3084 287 
Q 2609 -91 1734 -91 
Q 1441 -91 1130 -33 
Q 819 25 488 141 
L 488 750 
Q 750 597 1062 519 
Q 1375 441 1716 441 
Q 2309 441 2620 675 
Q 2931 909 2931 1356 
Q 2931 1769 2642 2001 
Q 2353 2234 1838 2234 
L 1294 2234 
L 1294 2753 
L 1863 2753 
Q 2328 2753 2575 2939 
Q 2822 3125 2822 3475 
Q 2822 3834 2567 4026 
Q 2313 4219 1838 4219 
Q 1578 4219 1281 4162 
Q 984 4106 628 3988 
L 628 4550 
Q 988 4650 1302 4700 
Q 1616 4750 1894 4750 
Q 2613 4750 3031 4423 
Q 3450 4097 3450 3541 
Q 3450 3153 3228 2886 
Q 3006 2619 2597 2516 
z
" transform="scale(0.015625)"/>
      </defs>
      <use xlink:href="#DejaVuSans-6e"/>
      <use xlink:href="#DejaVuSans-75" x="63.378906"/>
      <use xlink:href="#DejaVuSans-6d" x="126.757812"/>
      <use xlink:href="#DejaVuSans-20" x="224.169922"/>
      <use xlink:href="#DejaVuSans-62" x="255.957031"/>
      <use xlink:href="#DejaVuSans-65" x="319.433594"/>
      <use xlink:href="#DejaVuSans-74" x="380.957031"/>
      <use xlink:href="#DejaVuSans-77" x="420.166016"/>
      <use xlink:href="#DejaVuSans-65" x="501.953125"/>
      <use xlink:href="#DejaVuSans-65" x="563.476562"/>
      <use xlink:href="#DejaVuSans-6e" x="625"/>
      <use xlink:href="#DejaVuSans-20" x="688.378906"/>
      <use xlink:href="#DejaVuSans-5b" x="720.166016"/>
      <use xlink:href="#DejaVuSans-2d" x="759.179688"/>
      <use xlink:href="#DejaVuSans-33" x="795.263672"/>
      <use xlink:href="#DejaVuSans-2c" x="858.886719"/>
      <use xlink:href="#DejaVuSans-20" x="890.673828"/>
      <use xlink:href="#DejaVuSans-33" x="922.460938"/>
      <use xlink:href="#DejaVuSans-5d" x="986.083984"/>
      <use xlink:href="#DejaVuSans-3f" x="1025.097656"/>
     </g>
    </g>
   </g>
   <g id="text_8">
    <g clip-path="url(#pbc1c50ea55)">
     <!-- NO -->
     <g transform="translate(107.4456 456.603647)scale(0.125 -0.125)">
      <use xlink:href="#DejaVuSans-4e"/>
      <use xlink:href="#DejaVuSans-4f" x="74.804688"/>
     </g>
    </g>
   </g>
   <g id="text_9">
    <g clip-path="url(#pbc1c50ea55)">
     <!-- YES -->
     <g transform="translate(199.2456 398.238791)scale(0.125 -0.125)">
      <use xlink:href="#DejaVuSans-59"/>
      <use xlink:href="#DejaVuSans-45" x="61.083984"/>
      <use xlink:href="#DejaVuSans-53" x="124.267578"/>
     </g>
    </g>
   </g>
   <g id="text_10">
    <g clip-path="url(#pbc1c50ea55)">
     <!-- num between [-6, 6]? -->
     <g transform="translate(35.287234 409.061219)scale(0.125 -0.125)">
      <defs>
       <path id="DejaVuSans-36" d="M 2113 2584 
Q 1688 2584 1439 2293 
Q 1191 2003 1191 1497 
Q 1191 994 1439 701 
Q 1688 409 2113 409 
Q 2538 409 2786 701 
Q 3034 994 3034 1497 
Q 3034 2003 2786 2293 
Q 2538 2584 2113 2584 
z
M 3366 4563 
L 3366 3988 
Q 3128 4100 2886 4159 
Q 2644 4219 2406 4219 
Q 1781 4219 1451 3797 
Q 1122 3375 1075 2522 
Q 1259 2794 1537 2939 
Q 1816 3084 2150 3084 
Q 2853 3084 3261 2657 
Q 3669 2231 3669 1497 
Q 3669 778 3244 343 
Q 2819 -91 2113 -91 
Q 1303 -91 875 529 
Q 447 1150 447 2328 
Q 447 3434 972 4092 
Q 1497 4750 2381 4750 
Q 2619 4750 2861 4703 
Q 3103 4656 3366 4563 
z
" transform="scale(0.015625)"/>
      </defs>
      <use xlink:href="#DejaVuSans-6e"/>
      <use xlink:href="#DejaVuSans-75" x="63.378906"/>
      <use xlink:href="#DejaVuSans-6d" x="126.757812"/>
      <use xlink:href="#DejaVuSans-20" x="224.169922"/>
      <use xlink:href="#DejaVuSans-62" x="255.957031"/>
      <use xlink:href="#DejaVuSans-65" x="319.433594"/>
      <use xlink:href="#DejaVuSans-74" x="380.957031"/>
      <use xlink:href="#DejaVuSans-77" x="420.166016"/>
      <use xlink:href="#DejaVuSans-65" x="501.953125"/>
      <use xlink:href="#DejaVuSans-65" x="563.476562"/>
      <use xlink:href="#DejaVuSans-6e" x="625"/>
      <use xlink:href="#DejaVuSans-20" x="688.378906"/>
      <use xlink:href="#DejaVuSans-5b" x="720.166016"/>
      <use xlink:href="#DejaVuSans-2d" x="759.179688"/>
      <use xlink:href="#DejaVuSans-36" x="795.263672"/>
      <use xlink:href="#DejaVuSans-2c" x="858.886719"/>
      <use xlink:href="#DejaVuSans-20" x="890.673828"/>
      <use xlink:href="#DejaVuSans-36" x="922.460938"/>
      <use xlink:href="#DejaVuSans-5d" x="986.083984"/>
      <use xlink:href="#DejaVuSans-3f" x="1025.097656"/>
     </g>
    </g>
   </g>
   <g id="text_11">
    <g clip-path="url(#pbc1c50ea55)">
     <!-- num $\in$ [-6, 6] -->
     <g transform="translate(296.4145 409.061219)scale(0.125 -0.125)">
      <defs>
       <path id="DejaVuSans-2208" d="M 1072 1959 
Q 1094 1728 1291 1353 
Q 1522 919 1959 675 
Q 2388 438 2850 434 
L 5028 434 
L 5028 -63 
L 2850 -63 
Q 2250 -63 1695 246 
Q 1141 556 844 1106 
Q 547 1656 547 2241 
Q 547 2819 844 3369 
Q 1141 3919 1695 4231 
Q 2250 4544 2850 4544 
L 5028 4544 
L 5028 4047 
L 2850 4047 
Q 2388 4044 1959 3803 
Q 1525 3556 1291 3125 
Q 1091 2750 1063 2459 
L 5028 2459 
L 5028 1959 
L 1072 1959 
z
" transform="scale(0.015625)"/>
      </defs>
      <use xlink:href="#DejaVuSans-6e" transform="translate(0 0.015625)"/>
      <use xlink:href="#DejaVuSans-75" transform="translate(63.378906 0.015625)"/>
      <use xlink:href="#DejaVuSans-6d" transform="translate(126.757812 0.015625)"/>
      <use xlink:href="#DejaVuSans-20" transform="translate(224.169922 0.015625)"/>
      <use xlink:href="#DejaVuSans-2208" transform="translate(275.439453 0.015625)"/>
      <use xlink:href="#DejaVuSans-20" transform="translate(382.03125 0.015625)"/>
      <use xlink:href="#DejaVuSans-5b" transform="translate(413.818359 0.015625)"/>
      <use xlink:href="#DejaVuSans-2d" transform="translate(452.832031 0.015625)"/>
      <use xlink:href="#DejaVuSans-36" transform="translate(488.916016 0.015625)"/>
      <use xlink:href="#DejaVuSans-2c" transform="translate(552.539062 0.015625)"/>
      <use xlink:href="#DejaVuSans-20" transform="translate(584.326172 0.015625)"/>
      <use xlink:href="#DejaVuSans-36" transform="translate(616.113281 0.015625)"/>
      <use xlink:href="#DejaVuSans-5d" transform="translate(679.736328 0.015625)"/>
     </g>
    </g>
   </g>
   <g id="text_12">
    <g clip-path="url(#pbc1c50ea55)">
     <!-- num &gt; 6 or num &lt; -6 -->
     <g transform="translate(35.658328 537.581219)scale(0.125 -0.125)">
      <defs>
       <path id="DejaVuSans-3e" d="M 678 3150 
L 678 3719 
L 4684 2266 
L 4684 1747 
L 678 294 
L 678 863 
L 3897 2003 
L 678 3150 
z
" transform="scale(0.015625)"/>
       <path id="DejaVuSans-6f" d="M 1959 3097 
Q 1497 3097 1228 2736 
Q 959 2375 959 1747 
Q 959 1119 1226 758 
Q 1494 397 1959 397 
Q 2419 397 2687 759 
Q 2956 1122 2956 1747 
Q 2956 2369 2687 2733 
Q 2419 3097 1959 3097 
z
M 1959 3584 
Q 2709 3584 3137 3096 
Q 3566 2609 3566 1747 
Q 3566 888 3137 398 
Q 2709 -91 1959 -91 
Q 1206 -91 779 398 
Q 353 888 353 1747 
Q 353 2609 779 3096 
Q 1206 3584 1959 3584 
z
" transform="scale(0.015625)"/>
       <path id="DejaVuSans-72" d="M 2631 2963 
Q 2534 3019 2420 3045 
Q 2306 3072 2169 3072 
Q 1681 3072 1420 2755 
Q 1159 2438 1159 1844 
L 1159 0 
L 581 0 
L 581 3500 
L 1159 3500 
L 1159 2956 
Q 1341 3275 1631 3429 
Q 1922 3584 2338 3584 
Q 2397 3584 2469 3576 
Q 2541 3569 2628 3553 
L 2631 2963 
z
" transform="scale(0.015625)"/>
       <path id="DejaVuSans-3c" d="M 4684 3150 
L 1459 2003 
L 4684 863 
L 4684 294 
L 678 1747 
L 678 2266 
L 4684 3719 
L 4684 3150 
z
" transform="scale(0.015625)"/>
      </defs>
      <use xlink:href="#DejaVuSans-6e"/>
      <use xlink:href="#DejaVuSans-75" x="63.378906"/>
      <use xlink:href="#DejaVuSans-6d" x="126.757812"/>
      <use xlink:href="#DejaVuSans-20" x="224.169922"/>
      <use xlink:href="#DejaVuSans-3e" x="255.957031"/>
      <use xlink:href="#DejaVuSans-20" x="339.746094"/>
      <use xlink:href="#DejaVuSans-36" x="371.533203"/>
      <use xlink:href="#DejaVuSans-20" x="435.15625"/>
      <use xlink:href="#DejaVuSans-6f" x="466.943359"/>
      <use xlink:href="#DejaVuSans-72" x="528.125"/>
      <use xlink:href="#DejaVuSans-20" x="569.238281"/>
      <use xlink:href="#DejaVuSans-6e" x="601.025391"/>
      <use xlink:href="#DejaVuSans-75" x="664.404297"/>
      <use xlink:href="#DejaVuSans-6d" x="727.783203"/>
      <use xlink:href="#DejaVuSans-20" x="825.195312"/>
      <use xlink:href="#DejaVuSans-3c" x="856.982422"/>
      <use xlink:href="#DejaVuSans-20" x="940.771484"/>
      <use xlink:href="#DejaVuSans-2d" x="972.558594"/>
      <use xlink:href="#DejaVuSans-36" x="1008.642578"/>
     </g>
    </g>
   </g>
   <g id="text_13">
    <g clip-path="url(#pbc1c50ea55)">
     <!-- num $\in$ [-1, 1] -->
     <g transform="translate(626.8945 152.021219)scale(0.125 -0.125)">
      <use xlink:href="#DejaVuSans-6e" transform="translate(0 0.015625)"/>
      <use xlink:href="#DejaVuSans-75" transform="translate(63.378906 0.015625)"/>
      <use xlink:href="#DejaVuSans-6d" transform="translate(126.757812 0.015625)"/>
      <use xlink:href="#DejaVuSans-20" transform="translate(224.169922 0.015625)"/>
      <use xlink:href="#DejaVuSans-2208" transform="translate(275.439453 0.015625)"/>
      <use xlink:href="#DejaVuSans-20" transform="translate(382.03125 0.015625)"/>
      <use xlink:href="#DejaVuSans-5b" transform="translate(413.818359 0.015625)"/>
      <use xlink:href="#DejaVuSans-2d" transform="translate(452.832031 0.015625)"/>
      <use xlink:href="#DejaVuSans-31" transform="translate(488.916016 0.015625)"/>
      <use xlink:href="#DejaVuSans-2c" transform="translate(552.539062 0.015625)"/>
      <use xlink:href="#DejaVuSans-20" transform="translate(584.326172 0.015625)"/>
      <use xlink:href="#DejaVuSans-31" transform="translate(616.113281 0.015625)"/>
      <use xlink:href="#DejaVuSans-5d" transform="translate(679.736328 0.015625)"/>
     </g>
    </g>
   </g>
   <g id="text_14">
    <g clip-path="url(#pbc1c50ea55)">
     <!-- num $\in$ [-3, 3] -->
     <g transform="translate(406.5745 280.541219)scale(0.125 -0.125)">
      <use xlink:href="#DejaVuSans-6e" transform="translate(0 0.015625)"/>
      <use xlink:href="#DejaVuSans-75" transform="translate(63.378906 0.015625)"/>
      <use xlink:href="#DejaVuSans-6d" transform="translate(126.757812 0.015625)"/>
      <use xlink:href="#DejaVuSans-20" transform="translate(224.169922 0.015625)"/>
      <use xlink:href="#DejaVuSans-2208" transform="translate(275.439453 0.015625)"/>
      <use xlink:href="#DejaVuSans-20" transform="translate(382.03125 0.015625)"/>
      <use xlink:href="#DejaVuSans-5b" transform="translate(413.818359 0.015625)"/>
      <use xlink:href="#DejaVuSans-2d" transform="translate(452.832031 0.015625)"/>
      <use xlink:href="#DejaVuSans-33" transform="translate(488.916016 0.015625)"/>
      <use xlink:href="#DejaVuSans-2c" transform="translate(552.539062 0.015625)"/>
      <use xlink:href="#DejaVuSans-20" transform="translate(584.326172 0.015625)"/>
      <use xlink:href="#DejaVuSans-33" transform="translate(616.113281 0.015625)"/>
      <use xlink:href="#DejaVuSans-5d" transform="translate(679.736328 0.015625)"/>
     </g>
    </g>
   </g>
   <g id="text_15">
    <g clip-path="url(#pbc1c50ea55)">
     <!-- Given num -->
     <g transform="translate(68.590945 37.271219)scale(0.125 -0.125)">
      <use xlink:href="#DejaVuSans-47"/>
      <use xlink:href="#DejaVuSans-69" x="77.490234"/>
      <use xlink:href="#DejaVuSans-76" x="105.273438"/>
      <use xlink:href="#DejaVuSans-65" x="164.453125"/>
      <use xlink:href="#DejaVuSans-6e" x="225.976562"/>
      <use xlink:href="#DejaVuSans-20" x="289.355469"/>
      <use xlink:href="#DejaVuSans-6e" x="321.142578"/>
      <use xlink:href="#DejaVuSans-75" x="384.521484"/>
      <use xlink:href="#DejaVuSans-6d" x="447.900391"/>
     </g>
    </g>
   </g>
   <g id="text_16">
    <g clip-path="url(#pbc1c50ea55)">
     <!-- NO -->
     <g transform="translate(107.4456 199.563647)scale(0.125 -0.125)">
      <use xlink:href="#DejaVuSans-4e"/>
      <use xlink:href="#DejaVuSans-4f" x="74.804688"/>
     </g>
    </g>
   </g>
   <g id="text_17">
    <g clip-path="url(#pbc1c50ea55)">
     <!-- YES -->
     <g transform="translate(199.2456 141.198791)scale(0.125 -0.125)">
      <use xlink:href="#DejaVuSans-59"/>
      <use xlink:href="#DejaVuSans-45" x="61.083984"/>
      <use xlink:href="#DejaVuSans-53" x="124.267578"/>
     </g>
    </g>
   </g>
   <g id="text_18">
    <g clip-path="url(#pbc1c50ea55)">
     <!-- num between [-1, 1]? -->
     <g transform="translate(35.287234 152.021219)scale(0.125 -0.125)">
      <use xlink:href="#DejaVuSans-6e"/>
      <use xlink:href="#DejaVuSans-75" x="63.378906"/>
      <use xlink:href="#DejaVuSans-6d" x="126.757812"/>
      <use xlink:href="#DejaVuSans-20" x="224.169922"/>
      <use xlink:href="#DejaVuSans-62" x="255.957031"/>
      <use xlink:href="#DejaVuSans-65" x="319.433594"/>
      <use xlink:href="#DejaVuSans-74" x="380.957031"/>
      <use xlink:href="#DejaVuSans-77" x="420.166016"/>
      <use xlink:href="#DejaVuSans-65" x="501.953125"/>
      <use xlink:href="#DejaVuSans-65" x="563.476562"/>
      <use xlink:href="#DejaVuSans-6e" x="625"/>
      <use xlink:href="#DejaVuSans-20" x="688.378906"/>
      <use xlink:href="#DejaVuSans-5b" x="720.166016"/>
      <use xlink:href="#DejaVuSans-2d" x="759.179688"/>
      <use xlink:href="#DejaVuSans-31" x="795.263672"/>
      <use xlink:href="#DejaVuSans-2c" x="858.886719"/>
      <use xlink:href="#DejaVuSans-20" x="890.673828"/>
      <use xlink:href="#DejaVuSans-31" x="922.460938"/>
      <use xlink:href="#DejaVuSans-5d" x="986.083984"/>
      <use xlink:href="#DejaVuSans-3f" x="1025.097656"/>
     </g>
    </g>
   </g>
   <g id="text_19">
    <g clip-path="url(#pbc1c50ea55)">
     <!-- NO -->
     <g transform="translate(107.4456 328.083647)scale(0.125 -0.125)">
      <use xlink:href="#DejaVuSans-4e"/>
      <use xlink:href="#DejaVuSans-4f" x="74.804688"/>
     </g>
    </g>
   </g>
   <g id="text_20">
    <g clip-path="url(#pbc1c50ea55)">
     <!-- YES -->
     <g transform="translate(199.2456 269.718791)scale(0.125 -0.125)">
      <use xlink:href="#DejaVuSans-59"/>
      <use xlink:href="#DejaVuSans-45" x="61.083984"/>
      <use xlink:href="#DejaVuSans-53" x="124.267578"/>
     </g>
    </g>
   </g>
   <g id="text_21">
    <g clip-path="url(#pbc1c50ea55)">
     <!-- num between [-3, 3]? -->
     <g transform="translate(35.287234 280.541219)scale(0.125 -0.125)">
      <use xlink:href="#DejaVuSans-6e"/>
      <use xlink:href="#DejaVuSans-75" x="63.378906"/>
      <use xlink:href="#DejaVuSans-6d" x="126.757812"/>
      <use xlink:href="#DejaVuSans-20" x="224.169922"/>
      <use xlink:href="#DejaVuSans-62" x="255.957031"/>
      <use xlink:href="#DejaVuSans-65" x="319.433594"/>
      <use xlink:href="#DejaVuSans-74" x="380.957031"/>
      <use xlink:href="#DejaVuSans-77" x="420.166016"/>
      <use xlink:href="#DejaVuSans-65" x="501.953125"/>
      <use xlink:href="#DejaVuSans-65" x="563.476562"/>
      <use xlink:href="#DejaVuSans-6e" x="625"/>
      <use xlink:href="#DejaVuSans-20" x="688.378906"/>
      <use xlink:href="#DejaVuSans-5b" x="720.166016"/>
      <use xlink:href="#DejaVuSans-2d" x="759.179688"/>
      <use xlink:href="#DejaVuSans-33" x="795.263672"/>
      <use xlink:href="#DejaVuSans-2c" x="858.886719"/>
      <use xlink:href="#DejaVuSans-20" x="890.673828"/>
      <use xlink:href="#DejaVuSans-33" x="922.460938"/>
      <use xlink:href="#DejaVuSans-5d" x="986.083984"/>
      <use xlink:href="#DejaVuSans-3f" x="1025.097656"/>
     </g>
    </g>
   </g>
   <g id="text_22">
    <g clip-path="url(#pbc1c50ea55)">
     <!-- NO -->
     <g transform="translate(107.4456 456.603647)scale(0.125 -0.125)">
      <use xlink:href="#DejaVuSans-4e"/>
      <use xlink:href="#DejaVuSans-4f" x="74.804688"/>
     </g>
    </g>
   </g>
   <g id="text_23">
    <g clip-path="url(#pbc1c50ea55)">
     <!-- YES -->
     <g transform="translate(199.2456 398.238791)scale(0.125 -0.125)">
      <use xlink:href="#DejaVuSans-59"/>
      <use xlink:href="#DejaVuSans-45" x="61.083984"/>
      <use xlink:href="#DejaVuSans-53" x="124.267578"/>
     </g>
    </g>
   </g>
   <g id="text_24">
    <g clip-path="url(#pbc1c50ea55)">
     <!-- num between [-6, 6]? -->
     <g transform="translate(35.287234 409.061219)scale(0.125 -0.125)">
      <use xlink:href="#DejaVuSans-6e"/>
      <use xlink:href="#DejaVuSans-75" x="63.378906"/>
      <use xlink:href="#DejaVuSans-6d" x="126.757812"/>
      <use xlink:href="#DejaVuSans-20" x="224.169922"/>
      <use xlink:href="#DejaVuSans-62" x="255.957031"/>
      <use xlink:href="#DejaVuSans-65" x="319.433594"/>
      <use xlink:href="#DejaVuSans-74" x="380.957031"/>
      <use xlink:href="#DejaVuSans-77" x="420.166016"/>
      <use xlink:href="#DejaVuSans-65" x="501.953125"/>
      <use xlink:href="#DejaVuSans-65" x="563.476562"/>
      <use xlink:href="#DejaVuSans-6e" x="625"/>
      <use xlink:href="#DejaVuSans-20" x="688.378906"/>
      <use xlink:href="#DejaVuSans-5b" x="720.166016"/>
      <use xlink:href="#DejaVuSans-2d" x="759.179688"/>
      <use xlink:href="#DejaVuSans-36" x="795.263672"/>
      <use xlink:href="#DejaVuSans-2c" x="858.886719"/>
      <use xlink:href="#DejaVuSans-20" x="890.673828"/>
      <use xlink:href="#DejaVuSans-36" x="922.460938"/>
      <use xlink:href="#DejaVuSans-5d" x="986.083984"/>
      <use xlink:href="#DejaVuSans-3f" x="1025.097656"/>
     </g>
    </g>
   </g>
   <g id="text_25">
    <g clip-path="url(#pbc1c50ea55)">
     <!-- num $\in$ [-6, 6] -->
     <g transform="translate(296.4145 409.061219)scale(0.125 -0.125)">
      <use xlink:href="#DejaVuSans-6e" transform="translate(0 0.015625)"/>
      <use xlink:href="#DejaVuSans-75" transform="translate(63.378906 0.015625)"/>
      <use xlink:href="#DejaVuSans-6d" transform="translate(126.757812 0.015625)"/>
      <use xlink:href="#DejaVuSans-20" transform="translate(224.169922 0.015625)"/>
      <use xlink:href="#DejaVuSans-2208" transform="translate(275.439453 0.015625)"/>
      <use xlink:href="#DejaVuSans-20" transform="translate(382.03125 0.015625)"/>
      <use xlink:href="#DejaVuSans-5b" transform="translate(413.818359 0.015625)"/>
      <use xlink:href="#DejaVuSans-2d" transform="translate(452.832031 0.015625)"/>
      <use xlink:href="#DejaVuSans-36" transform="translate(488.916016 0.015625)"/>
      <use xlink:href="#DejaVuSans-2c" transform="translate(552.539062 0.015625)"/>
      <use xlink:href="#DejaVuSans-20" transform="translate(584.326172 0.015625)"/>
      <use xlink:href="#DejaVuSans-36" transform="translate(616.113281 0.015625)"/>
      <use xlink:href="#DejaVuSans-5d" transform="translate(679.736328 0.015625)"/>
     </g>
    </g>
   </g>
   <g id="text_26">
    <g clip-path="url(#pbc1c50ea55)">
     <!-- num &gt; 6 or num &lt; -6 -->
     <g transform="translate(35.658328 537.581219)scale(0.125 -0.125)">
      <use xlink:href="#DejaVuSans-6e"/>
      <use xlink:href="#DejaVuSans-75" x="63.378906"/>
      <use xlink:href="#DejaVuSans-6d" x="126.757812"/>
      <use xlink:href="#DejaVuSans-20" x="224.169922"/>
      <use xlink:href="#DejaVuSans-3e" x="255.957031"/>
      <use xlink:href="#DejaVuSans-20" x="339.746094"/>
      <use xlink:href="#DejaVuSans-36" x="371.533203"/>
      <use xlink:href="#DejaVuSans-20" x="435.15625"/>
      <use xlink:href="#DejaVuSans-6f" x="466.943359"/>
      <use xlink:href="#DejaVuSans-72" x="528.125"/>
      <use xlink:href="#DejaVuSans-20" x="569.238281"/>
      <use xlink:href="#DejaVuSans-6e" x="601.025391"/>
      <use xlink:href="#DejaVuSans-75" x="664.404297"/>
      <use xlink:href="#DejaVuSans-6d" x="727.783203"/>
      <use xlink:href="#DejaVuSans-20" x="825.195312"/>
      <use xlink:href="#DejaVuSans-3c" x="856.982422"/>
      <use xlink:href="#DejaVuSans-20" x="940.771484"/>
      <use xlink:href="#DejaVuSans-2d" x="972.558594"/>
      <use xlink:href="#DejaVuSans-36" x="1008.642578"/>
     </g>
    </g>
   </g>
   <g id="text_27">
    <g clip-path="url(#pbc1c50ea55)">
     <!-- num $\in$ [-1, 1] -->
     <g transform="translate(626.8945 152.021219)scale(0.125 -0.125)">
      <use xlink:href="#DejaVuSans-6e" transform="translate(0 0.015625)"/>
      <use xlink:href="#DejaVuSans-75" transform="translate(63.378906 0.015625)"/>
      <use xlink:href="#DejaVuSans-6d" transform="translate(126.757812 0.015625)"/>
      <use xlink:href="#DejaVuSans-20" transform="translate(224.169922 0.015625)"/>
      <use xlink:href="#DejaVuSans-2208" transform="translate(275.439453 0.015625)"/>
      <use xlink:href="#DejaVuSans-20" transform="translate(382.03125 0.015625)"/>
      <use xlink:href="#DejaVuSans-5b" transform="translate(413.818359 0.015625)"/>
      <use xlink:href="#DejaVuSans-2d" transform="translate(452.832031 0.015625)"/>
      <use xlink:href="#DejaVuSans-31" transform="translate(488.916016 0.015625)"/>
      <use xlink:href="#DejaVuSans-2c" transform="translate(552.539062 0.015625)"/>
      <use xlink:href="#DejaVuSans-20" transform="translate(584.326172 0.015625)"/>
      <use xlink:href="#DejaVuSans-31" transform="translate(616.113281 0.015625)"/>
      <use xlink:href="#DejaVuSans-5d" transform="translate(679.736328 0.015625)"/>
     </g>
    </g>
   </g>
   <g id="text_28">
    <g clip-path="url(#pbc1c50ea55)">
     <!-- num $\in$ [-3, 3] -->
     <g transform="translate(406.5745 280.541219)scale(0.125 -0.125)">
      <use xlink:href="#DejaVuSans-6e" transform="translate(0 0.015625)"/>
      <use xlink:href="#DejaVuSans-75" transform="translate(63.378906 0.015625)"/>
      <use xlink:href="#DejaVuSans-6d" transform="translate(126.757812 0.015625)"/>
      <use xlink:href="#DejaVuSans-20" transform="translate(224.169922 0.015625)"/>
      <use xlink:href="#DejaVuSans-2208" transform="translate(275.439453 0.015625)"/>
      <use xlink:href="#DejaVuSans-20" transform="translate(382.03125 0.015625)"/>
      <use xlink:href="#DejaVuSans-5b" transform="translate(413.818359 0.015625)"/>
      <use xlink:href="#DejaVuSans-2d" transform="translate(452.832031 0.015625)"/>
      <use xlink:href="#DejaVuSans-33" transform="translate(488.916016 0.015625)"/>
      <use xlink:href="#DejaVuSans-2c" transform="translate(552.539062 0.015625)"/>
      <use xlink:href="#DejaVuSans-20" transform="translate(584.326172 0.015625)"/>
      <use xlink:href="#DejaVuSans-33" transform="translate(616.113281 0.015625)"/>
      <use xlink:href="#DejaVuSans-5d" transform="translate(679.736328 0.015625)"/>
     </g>
    </g>
   </g>
  </g>
 </g>
 <defs>
  <clipPath id="pbc1c50ea55">
   <rect x="7.2" y="7.2" width="760.104" height="567.324"/>
  </clipPath>
 </defs>
</svg>
